<mxfile host="app.diagrams.net" modified="2024-02-12T18:14:08.396Z" agent="Mozilla/5.0 (Macintosh; Intel Mac OS X 10_15_7) AppleWebKit/537.36 (KHTML, like Gecko) Chrome/121.0.0.0 Safari/537.36" etag="TFWAEcmeCGIDrjsK6MUq" version="23.0.2" type="github">
  <diagram name="Page-1" id="_dueT4l7sRjnwMpAUAId">
    <mxGraphModel dx="658" dy="382" grid="1" gridSize="10" guides="1" tooltips="1" connect="1" arrows="1" fold="1" page="1" pageScale="1" pageWidth="827" pageHeight="1169" math="0" shadow="0">
      <root>
        <mxCell id="0" />
        <mxCell id="1" parent="0" />
        <mxCell id="pFxRpnEZyTAUqQ4nuTNX-8" value="" style="image;points=[];aspect=fixed;html=1;align=center;shadow=0;dashed=0;image=img/lib/allied_telesis/computer_and_terminals/Server_Desktop.svg;" parent="1" vertex="1">
          <mxGeometry x="350" y="203" width="60.74" height="77" as="geometry" />
        </mxCell>
        <mxCell id="pFxRpnEZyTAUqQ4nuTNX-2" value="" style="image;points=[];aspect=fixed;html=1;align=center;shadow=0;dashed=0;image=img/lib/allied_telesis/computer_and_terminals/Laptop.svg;" parent="1" vertex="1">
          <mxGeometry x="120" y="200" width="78.87" height="80" as="geometry" />
        </mxCell>
        <mxCell id="pFxRpnEZyTAUqQ4nuTNX-3" value="" style="shape=image;html=1;verticalAlign=top;verticalLabelPosition=bottom;labelBackgroundColor=#ffffff;imageAspect=0;aspect=fixed;image=https://cdn1.iconfinder.com/data/icons/fruit-136/64/Fruit_iconfree_Filled_Outline_raspberry-healthy-organic-food-fruit_icon-128.png" parent="1" vertex="1">
          <mxGeometry x="382.74" y="203" width="28" height="28" as="geometry" />
        </mxCell>
        <mxCell id="pFxRpnEZyTAUqQ4nuTNX-5" value="" style="endArrow=classic;html=1;rounded=0;entryX=0;entryY=0.412;entryDx=0;entryDy=0;entryPerimeter=0;" parent="1" edge="1">
          <mxGeometry width="50" height="50" relative="1" as="geometry">
            <mxPoint x="200" y="240" as="sourcePoint" />
            <mxPoint x="340" y="240.01600000000008" as="targetPoint" />
          </mxGeometry>
        </mxCell>
        <mxCell id="pFxRpnEZyTAUqQ4nuTNX-12" value="" style="image;points=[];aspect=fixed;html=1;align=center;shadow=0;dashed=0;image=img/lib/allied_telesis/storage/Datacenter_Server_Rack_EoR.svg;" parent="1" vertex="1">
          <mxGeometry x="650" y="181.5" width="59.37" height="120" as="geometry" />
        </mxCell>
        <mxCell id="pFxRpnEZyTAUqQ4nuTNX-14" value="" style="endArrow=classic;html=1;rounded=0;" parent="1" edge="1">
          <mxGeometry width="50" height="50" relative="1" as="geometry">
            <mxPoint x="420" y="240" as="sourcePoint" />
            <mxPoint x="650" y="240" as="targetPoint" />
          </mxGeometry>
        </mxCell>
        <mxCell id="pFxRpnEZyTAUqQ4nuTNX-17" value="HTTP - POST" style="shape=note;whiteSpace=wrap;html=1;backgroundOutline=1;fontColor=#000000;darkOpacity=0.05;fillColor=none;strokeColor=none;fillStyle=solid;direction=west;gradientDirection=north;gradientColor=#FFF2A1;shadow=0;size=0;pointerEvents=1;fontSize=9;fontFamily=Montserrat;fontSource=https%3A%2F%2Ffonts.googleapis.com%2Fcss%3Ffamily%3DMontserrat;" parent="1" vertex="1">
          <mxGeometry x="210" y="250" width="100" height="10" as="geometry" />
        </mxCell>
        <mxCell id="pFxRpnEZyTAUqQ4nuTNX-18" value="/detection" style="shape=note;whiteSpace=wrap;html=1;backgroundOutline=1;fontColor=#000000;darkOpacity=0.05;fillColor=none;strokeColor=none;fillStyle=solid;direction=west;gradientDirection=north;gradientColor=#FFF2A1;shadow=0;size=0;pointerEvents=1;fontSize=9;fontFamily=Montserrat;fontSource=https%3A%2F%2Ffonts.googleapis.com%2Fcss%3Ffamily%3DMontserrat;" parent="1" vertex="1">
          <mxGeometry x="270" y="221" width="100" height="10" as="geometry" />
        </mxCell>
        <mxCell id="pFxRpnEZyTAUqQ4nuTNX-19" value="Sends a picture from the webcam as base64 encoded string" style="shape=note;whiteSpace=wrap;html=1;backgroundOutline=1;fontColor=#000000;darkOpacity=0.05;fillColor=none;strokeColor=none;fillStyle=solid;direction=west;gradientDirection=north;gradientColor=#FFF2A1;shadow=0;size=0;pointerEvents=1;fontSize=9;fontFamily=Montserrat;fontSource=https%3A%2F%2Ffonts.googleapis.com%2Fcss%3Ffamily%3DMontserrat;" parent="1" vertex="1">
          <mxGeometry x="80.56" y="140" width="129.44" height="50" as="geometry" />
        </mxCell>
        <mxCell id="pFxRpnEZyTAUqQ4nuTNX-20" value="/api/carDetected" style="shape=note;whiteSpace=wrap;html=1;backgroundOutline=1;fontColor=#000000;darkOpacity=0.05;fillColor=none;strokeColor=none;fillStyle=solid;direction=west;gradientDirection=north;gradientColor=#FFF2A1;shadow=0;size=0;pointerEvents=1;fontSize=9;fontFamily=Montserrat;fontSource=https%3A%2F%2Ffonts.googleapis.com%2Fcss%3Ffamily%3DMontserrat;" parent="1" vertex="1">
          <mxGeometry x="560" y="221" width="100" height="10" as="geometry" />
        </mxCell>
        <mxCell id="pFxRpnEZyTAUqQ4nuTNX-21" value="HTTP - POST" style="shape=note;whiteSpace=wrap;html=1;backgroundOutline=1;fontColor=#000000;darkOpacity=0.05;fillColor=none;strokeColor=none;fillStyle=solid;direction=west;gradientDirection=north;gradientColor=#FFF2A1;shadow=0;size=0;pointerEvents=1;fontSize=9;fontFamily=Montserrat;fontSource=https%3A%2F%2Ffonts.googleapis.com%2Fcss%3Ffamily%3DMontserrat;" parent="1" vertex="1">
          <mxGeometry x="480" y="250" width="100" height="10" as="geometry" />
        </mxCell>
        <mxCell id="pFxRpnEZyTAUqQ4nuTNX-22" value="Process the received image and makes a decision for the license plate number" style="shape=note;whiteSpace=wrap;html=1;backgroundOutline=1;fontColor=#000000;darkOpacity=0.05;fillColor=none;strokeColor=none;fillStyle=solid;direction=west;gradientDirection=north;gradientColor=#FFF2A1;shadow=0;size=0;pointerEvents=1;fontSize=9;fontFamily=Montserrat;fontSource=https%3A%2F%2Ffonts.googleapis.com%2Fcss%3Ffamily%3DMontserrat;" parent="1" vertex="1">
          <mxGeometry x="320" y="140" width="129.44" height="50" as="geometry" />
        </mxCell>
        <mxCell id="sGRgAhjuEq5d9oSm11jw-1" value="&lt;div&gt;{&lt;/div&gt;&lt;div&gt;&amp;nbsp; plaque: &quot;2UFN22&quot;,&lt;/div&gt;&lt;div&gt;&amp;nbsp; direction: &quot;In&quot;,&lt;/div&gt;&lt;div&gt;&amp;nbsp; parkingid: &quot;2&quot;&lt;/div&gt;&lt;div style=&quot;text-align: justify;&quot;&gt;}&lt;/div&gt;" style="shape=note;whiteSpace=wrap;html=1;backgroundOutline=1;darkOpacity=0.05;fillColor=#f5f5f5;strokeColor=#666666;fillStyle=solid;direction=west;gradientDirection=north;shadow=0;size=0;pointerEvents=1;fontSize=9;fontFamily=Montserrat;fontSource=https%3A%2F%2Ffonts.googleapis.com%2Fcss%3Ffamily%3DMontserrat;fontColor=#333333;align=left;" vertex="1" parent="1">
          <mxGeometry x="490" y="150" width="90" height="60" as="geometry" />
        </mxCell>
        <mxCell id="sGRgAhjuEq5d9oSm11jw-2" value="&lt;div&gt;{&lt;/div&gt;&lt;div&gt;&amp;nbsp; image: &quot;BASE64&quot;,&lt;/div&gt;&lt;div&gt;&amp;nbsp; direction: &quot;In&quot;,&lt;/div&gt;&lt;div&gt;&amp;nbsp; parkingid: &quot;2&quot;&lt;/div&gt;&lt;div style=&quot;text-align: justify;&quot;&gt;}&lt;/div&gt;" style="shape=note;whiteSpace=wrap;html=1;backgroundOutline=1;darkOpacity=0.05;fillColor=#f5f5f5;strokeColor=#666666;fillStyle=solid;direction=west;gradientDirection=north;shadow=0;size=0;pointerEvents=1;fontSize=9;fontFamily=Montserrat;fontSource=https%3A%2F%2Ffonts.googleapis.com%2Fcss%3Ffamily%3DMontserrat;fontColor=#333333;align=left;" vertex="1" parent="1">
          <mxGeometry x="215" y="150" width="90" height="60" as="geometry" />
        </mxCell>
      </root>
    </mxGraphModel>
  </diagram>
</mxfile>
